<?xml version="1.0" encoding="UTF-8" standalone="no"?>
<!DOCTYPE svg PUBLIC "-//W3C//DTD SVG 1.1//EN" "http://www.w3.org/Graphics/SVG/1.1/DTD/svg11.dtd">
<svg width="100%" height="100%" viewBox="0 0 900 176" version="1.1" xmlns="http://www.w3.org/2000/svg" xmlns:xlink="http://www.w3.org/1999/xlink" xml:space="preserve" xmlns:serif="http://www.serif.com/" style="fill-rule:evenodd;clip-rule:evenodd;stroke-linejoin:round;stroke-miterlimit:2;">
    <g id="Artboard1" transform="matrix(0.97047,0,0,1,-853.065,-786.441)">
        <rect x="879.023" y="786.441" width="926.475" height="175.859" style="fill:none;"/>
        <clipPath id="_clip1">
            <rect x="879.023" y="786.441" width="926.475" height="175.859"/>
        </clipPath>
        <g clip-path="url(#_clip1)">
            <g id="Layer1" transform="matrix(1.03043,0,0,1,879.023,786.441)">
                <g transform="matrix(1,0,0,1,-931.858,-814.57)">
                    <path d="M1133.04,899.87L1165.34,899.87C1168.21,899.87 1170.79,900.303 1173.09,901.17C1175.39,902.037 1177.34,903.237 1178.94,904.77C1180.54,906.303 1181.76,908.187 1182.59,910.42C1183.42,912.653 1183.84,915.103 1183.84,917.77C1183.84,920.437 1183.49,922.687 1182.79,924.52C1182.09,926.353 1181.16,927.87 1179.99,929.07C1178.82,930.27 1177.49,931.17 1175.99,931.77C1174.49,932.37 1172.94,932.703 1171.34,932.77L1171.34,933.37C1172.87,933.37 1174.52,933.67 1176.29,934.27C1178.06,934.87 1179.69,935.82 1181.19,937.12C1182.69,938.42 1183.94,940.087 1184.94,942.12C1185.94,944.153 1186.44,946.67 1186.44,949.67C1186.44,952.47 1185.99,955.087 1185.09,957.52C1184.19,959.953 1182.94,962.07 1181.34,963.87C1179.74,965.67 1177.84,967.087 1175.64,968.12C1173.44,969.153 1171.04,969.67 1168.44,969.67L1133.04,969.67L1133.04,899.87ZM1146.24,958.47L1164.64,958.47C1167.17,958.47 1169.14,957.82 1170.54,956.52C1171.94,955.22 1172.64,953.337 1172.64,950.87L1172.64,947.47C1172.64,945.003 1171.94,943.103 1170.54,941.77C1169.14,940.437 1167.17,939.77 1164.64,939.77L1146.24,939.77L1146.24,958.47ZM1146.24,928.97L1162.54,928.97C1164.94,928.97 1166.81,928.32 1168.14,927.02C1169.47,925.72 1170.14,923.903 1170.14,921.57L1170.14,918.47C1170.14,916.137 1169.47,914.32 1168.14,913.02C1166.81,911.72 1164.94,911.07 1162.54,911.07L1146.24,911.07L1146.24,928.97Z" style="fill:white;fill-rule:nonzero;"/>
                    <path d="M1221.04,970.87C1215.04,970.87 1209.96,969.803 1205.79,967.67C1201.62,965.537 1198.04,962.737 1195.04,959.27L1203.94,950.67C1206.34,953.47 1209.02,955.603 1211.99,957.07C1214.96,958.537 1218.24,959.27 1221.84,959.27C1225.91,959.27 1228.97,958.387 1231.04,956.62C1233.11,954.853 1234.14,952.47 1234.14,949.47C1234.14,947.137 1233.47,945.237 1232.14,943.77C1230.81,942.303 1228.31,941.237 1224.64,940.57L1218.04,939.57C1204.11,937.37 1197.14,930.603 1197.14,919.27C1197.14,916.137 1197.72,913.303 1198.89,910.77C1200.06,908.237 1201.74,906.07 1203.94,904.27C1206.14,902.47 1208.79,901.087 1211.89,900.12C1214.99,899.153 1218.51,898.67 1222.44,898.67C1227.71,898.67 1232.31,899.537 1236.24,901.27C1240.17,903.003 1243.54,905.57 1246.34,908.97L1237.34,917.47C1235.61,915.337 1233.51,913.603 1231.04,912.27C1228.57,910.937 1225.47,910.27 1221.74,910.27C1217.94,910.27 1215.09,910.987 1213.19,912.42C1211.29,913.853 1210.34,915.87 1210.34,918.47C1210.34,921.137 1211.11,923.103 1212.64,924.37C1214.17,925.637 1216.64,926.57 1220.04,927.17L1226.54,928.37C1233.61,929.637 1238.82,931.887 1242.19,935.12C1245.56,938.353 1247.24,942.87 1247.24,948.67C1247.24,952.003 1246.66,955.02 1245.49,957.72C1244.32,960.42 1242.62,962.753 1240.39,964.72C1238.16,966.687 1235.42,968.203 1232.19,969.27C1228.96,970.337 1225.24,970.87 1221.04,970.87Z" style="fill:white;fill-rule:nonzero;"/>
                    <path d="M1297.24,969.67L1284.04,969.67L1284.04,899.87L1315.54,899.87C1318.74,899.87 1321.61,900.37 1324.14,901.37C1326.67,902.37 1328.82,903.82 1330.59,905.72C1332.36,907.62 1333.72,909.903 1334.69,912.57C1335.66,915.237 1336.14,918.203 1336.14,921.47C1336.14,926.27 1335.06,930.403 1332.89,933.87C1330.72,937.337 1327.47,939.803 1323.14,941.27L1337.44,969.67L1322.74,969.67L1309.74,942.77L1297.24,942.77L1297.24,969.67ZM1314.24,931.67C1316.77,931.67 1318.77,930.987 1320.24,929.62C1321.71,928.253 1322.44,926.303 1322.44,923.77L1322.44,919.17C1322.44,916.637 1321.71,914.703 1320.24,913.37C1318.77,912.037 1316.77,911.37 1314.24,911.37L1297.24,911.37L1297.24,931.67L1314.24,931.67Z" style="fill:white;fill-rule:nonzero;"/>
                    <path d="M1369.24,970.87C1365.37,970.87 1361.92,970.22 1358.89,968.92C1355.86,967.62 1353.29,965.787 1351.19,963.42C1349.09,961.053 1347.47,958.187 1346.34,954.82C1345.21,951.453 1344.64,947.67 1344.64,943.47C1344.64,939.337 1345.19,935.603 1346.29,932.27C1347.39,928.937 1348.97,926.087 1351.04,923.72C1353.11,921.353 1355.64,919.52 1358.64,918.22C1361.64,916.92 1365.04,916.27 1368.84,916.27C1372.91,916.27 1376.44,916.97 1379.44,918.37C1382.44,919.77 1384.91,921.67 1386.84,924.07C1388.77,926.47 1390.22,929.253 1391.19,932.42C1392.16,935.587 1392.64,938.97 1392.64,942.57L1392.64,946.77L1357.94,946.77L1357.94,948.07C1357.94,951.87 1359.01,954.92 1361.14,957.22C1363.27,959.52 1366.44,960.67 1370.64,960.67C1373.84,960.67 1376.46,960.003 1378.49,958.67C1380.52,957.337 1382.34,955.637 1383.94,953.57L1390.84,961.27C1388.71,964.27 1385.79,966.62 1382.09,968.32C1378.39,970.02 1374.11,970.87 1369.24,970.87ZM1369.04,925.87C1365.64,925.87 1362.94,927.003 1360.94,929.27C1358.94,931.537 1357.94,934.47 1357.94,938.07L1357.94,938.87L1379.34,938.87L1379.34,937.97C1379.34,934.37 1378.46,931.453 1376.69,929.22C1374.92,926.987 1372.37,925.87 1369.04,925.87Z" style="fill:white;fill-rule:nonzero;"/>
                    <path d="M1403.94,969.67L1403.94,917.47L1416.74,917.47L1416.74,926.17L1417.24,926.17C1418.24,923.437 1419.84,921.103 1422.04,919.17C1424.24,917.237 1427.31,916.27 1431.24,916.27C1434.84,916.27 1437.94,917.137 1440.54,918.87C1443.14,920.603 1445.07,923.237 1446.34,926.77L1446.54,926.77C1447.47,923.837 1449.32,921.353 1452.09,919.32C1454.86,917.287 1458.34,916.27 1462.54,916.27C1467.67,916.27 1471.62,918.037 1474.39,921.57C1477.16,925.103 1478.54,930.137 1478.54,936.67L1478.54,969.67L1465.74,969.67L1465.74,937.97C1465.74,930.503 1462.94,926.77 1457.34,926.77C1456.07,926.77 1454.86,926.953 1453.69,927.32C1452.52,927.687 1451.49,928.22 1450.59,928.92C1449.69,929.62 1448.97,930.487 1448.44,931.52C1447.91,932.553 1447.64,933.77 1447.64,935.17L1447.64,969.67L1434.84,969.67L1434.84,937.97C1434.84,930.503 1432.04,926.77 1426.44,926.77C1425.24,926.77 1424.06,926.953 1422.89,927.32C1421.72,927.687 1420.69,928.22 1419.79,928.92C1418.89,929.62 1418.16,930.487 1417.59,931.52C1417.02,932.553 1416.74,933.77 1416.74,935.17L1416.74,969.67L1403.94,969.67Z" style="fill:white;fill-rule:nonzero;"/>
                    <path d="M1513.44,970.87C1509.71,970.87 1506.36,970.237 1503.39,968.97C1500.42,967.703 1497.89,965.87 1495.79,963.47C1493.69,961.07 1492.07,958.187 1490.94,954.82C1489.81,951.453 1489.24,947.67 1489.24,943.47C1489.24,939.27 1489.81,935.503 1490.94,932.17C1492.07,928.837 1493.69,925.987 1495.79,923.62C1497.89,921.253 1500.42,919.437 1503.39,918.17C1506.36,916.903 1509.71,916.27 1513.44,916.27C1517.17,916.27 1520.54,916.903 1523.54,918.17C1526.54,919.437 1529.09,921.253 1531.19,923.62C1533.29,925.987 1534.91,928.837 1536.04,932.17C1537.17,935.503 1537.74,939.27 1537.74,943.47C1537.74,947.67 1537.17,951.453 1536.04,954.82C1534.91,958.187 1533.29,961.07 1531.19,963.47C1529.09,965.87 1526.54,967.703 1523.54,968.97C1520.54,970.237 1517.17,970.87 1513.44,970.87ZM1513.44,960.57C1516.84,960.57 1519.51,959.537 1521.44,957.47C1523.37,955.403 1524.34,952.37 1524.34,948.37L1524.34,938.67C1524.34,934.737 1523.37,931.737 1521.44,929.67C1519.51,927.603 1516.84,926.57 1513.44,926.57C1510.11,926.57 1507.47,927.603 1505.54,929.67C1503.61,931.737 1502.64,934.737 1502.64,938.67L1502.64,948.37C1502.64,952.37 1503.61,955.403 1505.54,957.47C1507.47,959.537 1510.11,960.57 1513.44,960.57Z" style="fill:white;fill-rule:nonzero;"/>
                    <path d="M1581.44,960.97L1580.94,960.97C1580.01,963.97 1578.24,966.37 1575.64,968.17C1573.04,969.97 1570.01,970.87 1566.54,970.87C1559.94,970.87 1554.89,968.503 1551.39,963.77C1547.89,959.037 1546.14,952.27 1546.14,943.47C1546.14,934.737 1547.89,928.02 1551.39,923.32C1554.89,918.62 1559.94,916.27 1566.54,916.27C1570.01,916.27 1573.04,917.153 1575.64,918.92C1578.24,920.687 1580.01,923.07 1580.94,926.07L1581.44,926.07L1581.44,895.67L1594.24,895.67L1594.24,969.67L1581.44,969.67L1581.44,960.97ZM1570.64,960.27C1573.71,960.27 1576.27,959.537 1578.34,958.07C1580.41,956.603 1581.44,954.503 1581.44,951.77L1581.44,935.17C1581.44,932.637 1580.41,930.603 1578.34,929.07C1576.27,927.537 1573.71,926.77 1570.64,926.77C1567.31,926.77 1564.62,927.887 1562.59,930.12C1560.56,932.353 1559.54,935.337 1559.54,939.07L1559.54,948.07C1559.54,951.803 1560.56,954.77 1562.59,956.97C1564.62,959.17 1567.31,960.27 1570.64,960.27Z" style="fill:white;fill-rule:nonzero;"/>
                    <path d="M1630.14,970.87C1626.27,970.87 1622.82,970.22 1619.79,968.92C1616.76,967.62 1614.19,965.787 1612.09,963.42C1609.99,961.053 1608.37,958.187 1607.24,954.82C1606.11,951.453 1605.54,947.67 1605.54,943.47C1605.54,939.337 1606.09,935.603 1607.19,932.27C1608.29,928.937 1609.87,926.087 1611.94,923.72C1614.01,921.353 1616.54,919.52 1619.54,918.22C1622.54,916.92 1625.94,916.27 1629.74,916.27C1633.81,916.27 1637.34,916.97 1640.34,918.37C1643.34,919.77 1645.81,921.67 1647.74,924.07C1649.67,926.47 1651.12,929.253 1652.09,932.42C1653.06,935.587 1653.54,938.97 1653.54,942.57L1653.54,946.77L1618.84,946.77L1618.84,948.07C1618.84,951.87 1619.91,954.92 1622.04,957.22C1624.17,959.52 1627.34,960.67 1631.54,960.67C1634.74,960.67 1637.36,960.003 1639.39,958.67C1641.42,957.337 1643.24,955.637 1644.84,953.57L1651.74,961.27C1649.61,964.27 1646.69,966.62 1642.99,968.32C1639.29,970.02 1635.01,970.87 1630.14,970.87ZM1629.94,925.87C1626.54,925.87 1623.84,927.003 1621.84,929.27C1619.84,931.537 1618.84,934.47 1618.84,938.07L1618.84,938.87L1640.24,938.87L1640.24,937.97C1640.24,934.37 1639.36,931.453 1637.59,929.22C1635.82,926.987 1633.27,925.87 1629.94,925.87Z" style="fill:white;fill-rule:nonzero;"/>
                    <path d="M1677.64,969.67C1673.24,969.67 1670.01,968.57 1667.94,966.37C1665.87,964.17 1664.84,961.07 1664.84,957.07L1664.84,895.67L1677.64,895.67L1677.64,959.47L1684.54,959.47L1684.54,969.67L1677.64,969.67Z" style="fill:white;fill-rule:nonzero;"/>
                    <path d="M1700.64,909.87C1697.97,909.87 1696.06,909.27 1694.89,908.07C1693.72,906.87 1693.14,905.337 1693.14,903.47L1693.14,901.47C1693.14,899.603 1693.72,898.07 1694.89,896.87C1696.06,895.67 1697.97,895.07 1700.64,895.07C1703.24,895.07 1705.14,895.67 1706.34,896.87C1707.54,898.07 1708.14,899.603 1708.14,901.47L1708.14,903.47C1708.14,905.337 1707.54,906.87 1706.34,908.07C1705.14,909.27 1703.24,909.87 1700.64,909.87ZM1694.24,917.47L1707.04,917.47L1707.04,969.67L1694.24,969.67L1694.24,917.47Z" style="fill:white;fill-rule:nonzero;"/>
                    <path d="M1721.84,969.67L1721.84,917.47L1734.64,917.47L1734.64,926.17L1735.14,926.17C1736.21,923.37 1737.89,921.02 1740.19,919.12C1742.49,917.22 1745.67,916.27 1749.74,916.27C1755.14,916.27 1759.27,918.037 1762.14,921.57C1765.01,925.103 1766.44,930.137 1766.44,936.67L1766.44,969.67L1753.64,969.67L1753.64,937.97C1753.64,934.237 1752.97,931.437 1751.64,929.57C1750.31,927.703 1748.11,926.77 1745.04,926.77C1743.71,926.77 1742.42,926.953 1741.19,927.32C1739.96,927.687 1738.86,928.22 1737.89,928.92C1736.92,929.62 1736.14,930.487 1735.54,931.52C1734.94,932.553 1734.64,933.77 1734.64,935.17L1734.64,969.67L1721.84,969.67Z" style="fill:white;fill-rule:nonzero;"/>
                    <path d="M1827.74,974.07C1827.74,976.803 1827.26,979.22 1826.29,981.32C1825.32,983.42 1823.74,985.17 1821.54,986.57C1819.34,987.97 1816.51,989.037 1813.04,989.77C1809.57,990.503 1805.34,990.87 1800.34,990.87C1795.94,990.87 1792.21,990.587 1789.14,990.02C1786.07,989.453 1783.56,988.653 1781.59,987.62C1779.62,986.587 1778.21,985.303 1777.34,983.77C1776.47,982.237 1776.04,980.503 1776.04,978.57C1776.04,975.637 1776.86,973.353 1778.49,971.72C1780.12,970.087 1782.41,969.037 1785.34,968.57L1785.34,967.47C1783.21,966.937 1781.56,965.887 1780.39,964.32C1779.22,962.753 1778.64,960.903 1778.64,958.77C1778.64,957.437 1778.91,956.253 1779.44,955.22C1779.97,954.187 1780.69,953.303 1781.59,952.57C1782.49,951.837 1783.51,951.22 1784.64,950.72C1785.77,950.22 1786.97,949.837 1788.24,949.57L1788.24,949.17C1785.04,947.703 1782.66,945.67 1781.09,943.07C1779.52,940.47 1778.74,937.437 1778.74,933.97C1778.74,928.637 1780.57,924.353 1784.24,921.12C1787.91,917.887 1793.27,916.27 1800.34,916.27C1801.94,916.27 1803.52,916.37 1805.09,916.57C1806.66,916.77 1808.11,917.103 1809.44,917.57L1809.44,915.87C1809.44,910.803 1811.91,908.27 1816.84,908.27L1824.94,908.27L1824.94,918.07L1813.84,918.07L1813.84,919.47C1816.57,921.003 1818.61,923.003 1819.94,925.47C1821.27,927.937 1821.94,930.77 1821.94,933.97C1821.94,939.237 1820.12,943.47 1816.49,946.67C1812.86,949.87 1807.47,951.47 1800.34,951.47C1797.27,951.47 1794.61,951.17 1792.34,950.57C1791.34,951.037 1790.47,951.653 1789.74,952.42C1789.01,953.187 1788.64,954.137 1788.64,955.27C1788.64,957.87 1790.91,959.17 1795.44,959.17L1809.44,959.17C1815.84,959.17 1820.49,960.487 1823.39,963.12C1826.29,965.753 1827.74,969.403 1827.74,974.07ZM1815.74,975.57C1815.74,973.903 1815.07,972.603 1813.74,971.67C1812.41,970.737 1810.11,970.27 1806.84,970.27L1789.04,970.27C1787.24,971.603 1786.34,973.403 1786.34,975.67C1786.34,977.67 1787.17,979.237 1788.84,980.37C1790.51,981.503 1793.34,982.07 1797.34,982.07L1803.74,982.07C1807.94,982.07 1810.99,981.537 1812.89,980.47C1814.79,979.403 1815.74,977.77 1815.74,975.57ZM1800.34,942.77C1806.61,942.77 1809.74,940.103 1809.74,934.77L1809.74,933.07C1809.74,927.737 1806.61,925.07 1800.34,925.07C1794.07,925.07 1790.94,927.737 1790.94,933.07L1790.94,934.77C1790.94,940.103 1794.07,942.77 1800.34,942.77Z" style="fill:white;fill-rule:nonzero;"/>
                </g>
                <g transform="matrix(0.443695,0,0,0.443695,-297.668,-262.381)">
                    <path d="M696.24,767.318L670.935,764.347L885.671,592.349L1054.72,809.411L1029.42,806.44L1029.42,835.408L1002.11,825.043L922.371,880.782L862.83,845.012L805.007,875.906L780.731,845.012L721.222,896.17L776.718,866.659L808.199,899.429L862.83,873.481L923.052,913.194L1002.78,867.982L1029.42,878.089L1029.42,941.245L696.24,941.245L696.24,767.318ZM904.408,723.986L909.52,684.355L839.332,675.303L828.319,760.686L840.75,762.289L842.179,748.331L865.04,752.598L866.498,741.291L879.317,723.862L870.397,711.065L904.408,723.986Z" style="fill:white;"/>
                </g>
            </g>
        </g>
    </g>
</svg>
