<?xml version="1.0" encoding="UTF-8" standalone="no"?><!DOCTYPE svg PUBLIC "-//W3C//DTD SVG 1.1//EN" "http://www.w3.org/Graphics/SVG/1.1/DTD/svg11.dtd"><svg width="100%" height="100%" viewBox="0 0 900 176" version="1.1" xmlns="http://www.w3.org/2000/svg" xmlns:xlink="http://www.w3.org/1999/xlink" xml:space="preserve" xmlns:serif="http://www.serif.com/" style="fill-rule:evenodd;clip-rule:evenodd;stroke-linejoin:round;stroke-miterlimit:2;"><g transform="matrix(0.97047,0,0,1,-853.065,-786.441)"><rect id="Artboard1" x="879.023" y="786.441" width="926.475" height="175.859" style="fill:none;"/><clipPath id="_clip1"><rect id="Artboard11" serif:id="Artboard1" x="879.023" y="786.441" width="926.475" height="175.859"/></clipPath><g clip-path="url(#_clip1)"><g transform="matrix(1.03043,0,0,1,-81.1901,-28.1286)"><g transform="matrix(100,0,0,100,1124.84,969.67)"><path d="M0.082,-0.698L0.405,-0.698C0.434,-0.698 0.46,-0.694 0.483,-0.685C0.505,-0.676 0.525,-0.664 0.541,-0.649C0.557,-0.634 0.569,-0.615 0.578,-0.593C0.586,-0.57 0.59,-0.546 0.59,-0.519C0.59,-0.492 0.587,-0.47 0.58,-0.452C0.573,-0.433 0.563,-0.418 0.552,-0.406C0.54,-0.394 0.527,-0.385 0.512,-0.379C0.497,-0.373 0.481,-0.37 0.465,-0.369L0.465,-0.363C0.48,-0.363 0.497,-0.36 0.515,-0.354C0.532,-0.348 0.549,-0.339 0.564,-0.326C0.579,-0.313 0.591,-0.296 0.601,-0.276C0.611,-0.255 0.616,-0.23 0.616,-0.2C0.616,-0.172 0.612,-0.146 0.603,-0.122C0.594,-0.097 0.581,-0.076 0.565,-0.058C0.549,-0.04 0.53,-0.026 0.508,-0.016C0.486,-0.005 0.462,-0 0.436,-0L0.082,-0L0.082,-0.698ZM0.214,-0.112L0.398,-0.112C0.423,-0.112 0.443,-0.119 0.457,-0.132C0.471,-0.145 0.478,-0.163 0.478,-0.188L0.478,-0.222C0.478,-0.247 0.471,-0.266 0.457,-0.279C0.443,-0.292 0.423,-0.299 0.398,-0.299L0.214,-0.299L0.214,-0.112ZM0.214,-0.407L0.377,-0.407C0.401,-0.407 0.42,-0.413 0.433,-0.427C0.446,-0.44 0.453,-0.458 0.453,-0.481L0.453,-0.512C0.453,-0.535 0.446,-0.554 0.433,-0.567C0.42,-0.58 0.401,-0.586 0.377,-0.586L0.214,-0.586L0.214,-0.407Z" style="fill-rule:nonzero;"/></g><g transform="matrix(100,0,0,100,1191.14,969.67)"><path d="M0.299,0.012C0.239,0.012 0.188,0.001 0.147,-0.02C0.105,-0.041 0.069,-0.069 0.039,-0.104L0.128,-0.19C0.152,-0.162 0.179,-0.141 0.209,-0.126C0.238,-0.111 0.271,-0.104 0.307,-0.104C0.348,-0.104 0.378,-0.113 0.399,-0.131C0.42,-0.148 0.43,-0.172 0.43,-0.202C0.43,-0.225 0.423,-0.244 0.41,-0.259C0.397,-0.274 0.372,-0.284 0.335,-0.291L0.269,-0.301C0.13,-0.323 0.06,-0.391 0.06,-0.504C0.06,-0.535 0.066,-0.564 0.078,-0.589C0.089,-0.614 0.106,-0.636 0.128,-0.654C0.15,-0.672 0.177,-0.686 0.208,-0.696C0.239,-0.705 0.274,-0.71 0.313,-0.71C0.366,-0.71 0.412,-0.701 0.451,-0.684C0.49,-0.667 0.524,-0.641 0.552,-0.607L0.462,-0.522C0.445,-0.543 0.424,-0.561 0.399,-0.574C0.374,-0.587 0.343,-0.594 0.306,-0.594C0.268,-0.594 0.24,-0.587 0.221,-0.573C0.202,-0.558 0.192,-0.538 0.192,-0.512C0.192,-0.485 0.2,-0.466 0.215,-0.453C0.23,-0.44 0.255,-0.431 0.289,-0.425L0.354,-0.413C0.425,-0.4 0.477,-0.378 0.511,-0.346C0.544,-0.313 0.561,-0.268 0.561,-0.21C0.561,-0.177 0.555,-0.147 0.544,-0.12C0.532,-0.093 0.515,-0.069 0.493,-0.05C0.47,-0.03 0.443,-0.015 0.411,-0.004C0.378,0.007 0.341,0.012 0.299,0.012Z" style="fill-rule:nonzero;"/></g><g transform="matrix(100,0,0,100,1275.84,969.67)"><path d="M0.214,-0L0.082,-0L0.082,-0.698L0.397,-0.698C0.429,-0.698 0.458,-0.693 0.483,-0.683C0.508,-0.673 0.53,-0.659 0.548,-0.64C0.565,-0.62 0.579,-0.598 0.589,-0.571C0.598,-0.544 0.603,-0.515 0.603,-0.482C0.603,-0.434 0.592,-0.393 0.571,-0.358C0.549,-0.323 0.516,-0.299 0.473,-0.284L0.616,-0L0.469,-0L0.339,-0.269L0.214,-0.269L0.214,-0ZM0.384,-0.38C0.409,-0.38 0.429,-0.387 0.444,-0.401C0.459,-0.414 0.466,-0.434 0.466,-0.459L0.466,-0.505C0.466,-0.53 0.459,-0.55 0.444,-0.563C0.429,-0.576 0.409,-0.583 0.384,-0.583L0.214,-0.583L0.214,-0.38L0.384,-0.38Z" style="fill-rule:nonzero;"/></g><g transform="matrix(100,0,0,100,1340.74,969.67)"><path d="M0.285,0.012C0.246,0.012 0.212,0.006 0.182,-0.008C0.151,-0.021 0.126,-0.039 0.105,-0.063C0.084,-0.086 0.067,-0.115 0.056,-0.149C0.045,-0.182 0.039,-0.22 0.039,-0.262C0.039,-0.303 0.045,-0.341 0.056,-0.374C0.067,-0.407 0.082,-0.436 0.103,-0.46C0.124,-0.483 0.149,-0.501 0.179,-0.515C0.209,-0.528 0.243,-0.534 0.281,-0.534C0.322,-0.534 0.357,-0.527 0.387,-0.513C0.417,-0.499 0.442,-0.48 0.461,-0.456C0.48,-0.432 0.495,-0.404 0.505,-0.373C0.514,-0.341 0.519,-0.307 0.519,-0.271L0.519,-0.229L0.172,-0.229L0.172,-0.216C0.172,-0.178 0.183,-0.148 0.204,-0.125C0.225,-0.101 0.257,-0.09 0.299,-0.09C0.331,-0.09 0.357,-0.097 0.378,-0.11C0.398,-0.123 0.416,-0.14 0.432,-0.161L0.501,-0.084C0.48,-0.054 0.451,-0.031 0.414,-0.014C0.377,0.004 0.334,0.012 0.285,0.012ZM0.283,-0.438C0.249,-0.438 0.222,-0.427 0.202,-0.404C0.182,-0.381 0.172,-0.352 0.172,-0.316L0.172,-0.308L0.386,-0.308L0.386,-0.317C0.386,-0.353 0.377,-0.382 0.36,-0.405C0.342,-0.427 0.316,-0.438 0.283,-0.438Z" style="fill-rule:nonzero;"/></g><g transform="matrix(100,0,0,100,1396.54,969.67)"><path d="M0.074,-0L0.074,-0.522L0.202,-0.522L0.202,-0.435L0.207,-0.435C0.217,-0.462 0.233,-0.486 0.255,-0.505C0.277,-0.524 0.308,-0.534 0.347,-0.534C0.383,-0.534 0.414,-0.525 0.44,-0.508C0.466,-0.491 0.485,-0.464 0.498,-0.429L0.5,-0.429C0.509,-0.458 0.528,-0.483 0.556,-0.504C0.583,-0.524 0.618,-0.534 0.66,-0.534C0.711,-0.534 0.751,-0.516 0.779,-0.481C0.806,-0.446 0.82,-0.395 0.82,-0.33L0.82,-0L0.692,-0L0.692,-0.317C0.692,-0.392 0.664,-0.429 0.608,-0.429C0.595,-0.429 0.583,-0.427 0.572,-0.424C0.56,-0.42 0.55,-0.415 0.541,-0.408C0.532,-0.401 0.524,-0.392 0.519,-0.382C0.514,-0.371 0.511,-0.359 0.511,-0.345L0.511,-0L0.383,-0L0.383,-0.317C0.383,-0.392 0.355,-0.429 0.299,-0.429C0.287,-0.429 0.275,-0.427 0.264,-0.424C0.252,-0.42 0.242,-0.415 0.233,-0.408C0.224,-0.401 0.216,-0.392 0.211,-0.382C0.205,-0.371 0.202,-0.359 0.202,-0.345L0.202,-0L0.074,-0Z" style="fill-rule:nonzero;"/></g><g transform="matrix(100,0,0,100,1485.34,969.67)"><path d="M0.281,0.012C0.244,0.012 0.21,0.006 0.181,-0.007C0.151,-0.02 0.126,-0.038 0.105,-0.062C0.084,-0.086 0.067,-0.115 0.056,-0.149C0.045,-0.182 0.039,-0.22 0.039,-0.262C0.039,-0.304 0.045,-0.342 0.056,-0.375C0.067,-0.408 0.084,-0.437 0.105,-0.461C0.126,-0.484 0.151,-0.502 0.181,-0.515C0.21,-0.528 0.244,-0.534 0.281,-0.534C0.318,-0.534 0.352,-0.528 0.382,-0.515C0.412,-0.502 0.438,-0.484 0.459,-0.461C0.48,-0.437 0.496,-0.408 0.507,-0.375C0.518,-0.342 0.524,-0.304 0.524,-0.262C0.524,-0.22 0.518,-0.182 0.507,-0.149C0.496,-0.115 0.48,-0.086 0.459,-0.062C0.438,-0.038 0.412,-0.02 0.382,-0.007C0.352,0.006 0.318,0.012 0.281,0.012ZM0.281,-0.091C0.315,-0.091 0.342,-0.101 0.361,-0.122C0.38,-0.143 0.39,-0.173 0.39,-0.213L0.39,-0.31C0.39,-0.349 0.38,-0.379 0.361,-0.4C0.342,-0.421 0.315,-0.431 0.281,-0.431C0.248,-0.431 0.221,-0.421 0.202,-0.4C0.183,-0.379 0.173,-0.349 0.173,-0.31L0.173,-0.213C0.173,-0.173 0.183,-0.143 0.202,-0.122C0.221,-0.101 0.248,-0.091 0.281,-0.091Z" style="fill-rule:nonzero;"/></g><g transform="matrix(100,0,0,100,1541.64,969.67)"><path d="M0.398,-0.087L0.393,-0.087C0.384,-0.057 0.366,-0.033 0.34,-0.015C0.314,0.003 0.284,0.012 0.249,0.012C0.183,0.012 0.132,-0.012 0.098,-0.059C0.063,-0.106 0.045,-0.174 0.045,-0.262C0.045,-0.349 0.063,-0.417 0.098,-0.464C0.132,-0.511 0.183,-0.534 0.249,-0.534C0.284,-0.534 0.314,-0.525 0.34,-0.508C0.366,-0.49 0.384,-0.466 0.393,-0.436L0.398,-0.436L0.398,-0.74L0.526,-0.74L0.526,-0L0.398,-0L0.398,-0.087ZM0.29,-0.094C0.321,-0.094 0.346,-0.101 0.367,-0.116C0.388,-0.131 0.398,-0.152 0.398,-0.179L0.398,-0.345C0.398,-0.37 0.388,-0.391 0.367,-0.406C0.346,-0.421 0.321,-0.429 0.29,-0.429C0.257,-0.429 0.23,-0.418 0.21,-0.396C0.189,-0.373 0.179,-0.343 0.179,-0.306L0.179,-0.216C0.179,-0.179 0.189,-0.149 0.21,-0.127C0.23,-0.105 0.257,-0.094 0.29,-0.094Z" style="fill-rule:nonzero;"/></g><g transform="matrix(100,0,0,100,1601.64,969.67)"><path d="M0.285,0.012C0.246,0.012 0.212,0.006 0.182,-0.008C0.151,-0.021 0.126,-0.039 0.105,-0.063C0.084,-0.086 0.067,-0.115 0.056,-0.149C0.045,-0.182 0.039,-0.22 0.039,-0.262C0.039,-0.303 0.045,-0.341 0.056,-0.374C0.067,-0.407 0.082,-0.436 0.103,-0.46C0.124,-0.483 0.149,-0.501 0.179,-0.515C0.209,-0.528 0.243,-0.534 0.281,-0.534C0.322,-0.534 0.357,-0.527 0.387,-0.513C0.417,-0.499 0.442,-0.48 0.461,-0.456C0.48,-0.432 0.495,-0.404 0.505,-0.373C0.514,-0.341 0.519,-0.307 0.519,-0.271L0.519,-0.229L0.172,-0.229L0.172,-0.216C0.172,-0.178 0.183,-0.148 0.204,-0.125C0.225,-0.101 0.257,-0.09 0.299,-0.09C0.331,-0.09 0.357,-0.097 0.378,-0.11C0.398,-0.123 0.416,-0.14 0.432,-0.161L0.501,-0.084C0.48,-0.054 0.451,-0.031 0.414,-0.014C0.377,0.004 0.334,0.012 0.285,0.012ZM0.283,-0.438C0.249,-0.438 0.222,-0.427 0.202,-0.404C0.182,-0.381 0.172,-0.352 0.172,-0.316L0.172,-0.308L0.386,-0.308L0.386,-0.317C0.386,-0.353 0.377,-0.382 0.36,-0.405C0.342,-0.427 0.316,-0.438 0.283,-0.438Z" style="fill-rule:nonzero;"/></g><g transform="matrix(100,0,0,100,1657.44,969.67)"><path d="M0.202,-0C0.158,-0 0.126,-0.011 0.105,-0.033C0.084,-0.055 0.074,-0.086 0.074,-0.126L0.074,-0.74L0.202,-0.74L0.202,-0.102L0.271,-0.102L0.271,-0L0.202,-0Z" style="fill-rule:nonzero;"/></g><g transform="matrix(100,0,0,100,1686.84,969.67)"><path d="M0.138,-0.598C0.111,-0.598 0.092,-0.604 0.081,-0.616C0.069,-0.628 0.063,-0.643 0.063,-0.662L0.063,-0.682C0.063,-0.701 0.069,-0.716 0.081,-0.728C0.092,-0.74 0.111,-0.746 0.138,-0.746C0.164,-0.746 0.183,-0.74 0.195,-0.728C0.207,-0.716 0.213,-0.701 0.213,-0.682L0.213,-0.662C0.213,-0.643 0.207,-0.628 0.195,-0.616C0.183,-0.604 0.164,-0.598 0.138,-0.598ZM0.074,-0.522L0.202,-0.522L0.202,-0L0.074,-0L0.074,-0.522Z" style="fill-rule:nonzero;"/></g><g transform="matrix(100,0,0,100,1714.44,969.67)"><path d="M0.074,-0L0.074,-0.522L0.202,-0.522L0.202,-0.435L0.207,-0.435C0.218,-0.463 0.235,-0.487 0.258,-0.506C0.28,-0.525 0.312,-0.534 0.353,-0.534C0.407,-0.534 0.448,-0.516 0.477,-0.481C0.506,-0.446 0.52,-0.395 0.52,-0.33L0.52,-0L0.392,-0L0.392,-0.317C0.392,-0.354 0.385,-0.382 0.372,-0.401C0.359,-0.42 0.337,-0.429 0.306,-0.429C0.293,-0.429 0.28,-0.427 0.268,-0.424C0.255,-0.42 0.244,-0.415 0.235,-0.408C0.225,-0.401 0.217,-0.392 0.211,-0.382C0.205,-0.371 0.202,-0.359 0.202,-0.345L0.202,-0L0.074,-0Z" style="fill-rule:nonzero;"/></g><g transform="matrix(100,0,0,100,1773.24,969.67)"><path d="M0.545,0.044C0.545,0.071 0.54,0.096 0.531,0.117C0.521,0.137 0.505,0.155 0.483,0.169C0.461,0.183 0.433,0.194 0.398,0.201C0.363,0.208 0.321,0.212 0.271,0.212C0.227,0.212 0.19,0.209 0.159,0.204C0.128,0.198 0.103,0.19 0.084,0.18C0.064,0.169 0.05,0.156 0.041,0.141C0.032,0.126 0.028,0.108 0.028,0.089C0.028,0.06 0.036,0.037 0.053,0.021C0.069,0.004 0.092,-0.006 0.121,-0.011L0.121,-0.022C0.1,-0.027 0.083,-0.038 0.072,-0.054C0.06,-0.069 0.054,-0.088 0.054,-0.109C0.054,-0.122 0.057,-0.134 0.062,-0.145C0.067,-0.155 0.075,-0.164 0.084,-0.171C0.093,-0.178 0.103,-0.185 0.114,-0.19C0.125,-0.195 0.137,-0.198 0.15,-0.201L0.15,-0.205C0.118,-0.22 0.094,-0.24 0.079,-0.266C0.063,-0.292 0.055,-0.322 0.055,-0.357C0.055,-0.41 0.073,-0.453 0.11,-0.486C0.147,-0.518 0.2,-0.534 0.271,-0.534C0.287,-0.534 0.303,-0.533 0.319,-0.531C0.334,-0.529 0.349,-0.526 0.362,-0.521L0.362,-0.538C0.362,-0.589 0.387,-0.614 0.436,-0.614L0.517,-0.614L0.517,-0.516L0.406,-0.516L0.406,-0.502C0.433,-0.487 0.454,-0.467 0.467,-0.442C0.48,-0.417 0.487,-0.389 0.487,-0.357C0.487,-0.304 0.469,-0.262 0.433,-0.23C0.396,-0.198 0.342,-0.182 0.271,-0.182C0.24,-0.182 0.214,-0.185 0.191,-0.191C0.181,-0.186 0.172,-0.18 0.165,-0.173C0.158,-0.165 0.154,-0.155 0.154,-0.144C0.154,-0.118 0.177,-0.105 0.222,-0.105L0.362,-0.105C0.426,-0.105 0.472,-0.092 0.502,-0.066C0.531,-0.039 0.545,-0.003 0.545,0.044ZM0.425,0.059C0.425,0.042 0.418,0.029 0.405,0.02C0.392,0.011 0.369,0.006 0.336,0.006L0.158,0.006C0.14,0.019 0.131,0.037 0.131,0.06C0.131,0.08 0.139,0.096 0.156,0.107C0.173,0.118 0.201,0.124 0.241,0.124L0.305,0.124C0.347,0.124 0.378,0.119 0.397,0.108C0.416,0.097 0.425,0.081 0.425,0.059ZM0.271,-0.269C0.334,-0.269 0.365,-0.296 0.365,-0.349L0.365,-0.366C0.365,-0.419 0.334,-0.446 0.271,-0.446C0.208,-0.446 0.177,-0.419 0.177,-0.366L0.177,-0.349C0.177,-0.296 0.208,-0.269 0.271,-0.269Z" style="fill-rule:nonzero;"/></g></g><g transform="matrix(0.457196,0,0,0.443695,572.298,524.06)"><path d="M696.24,767.318L670.935,764.347L885.671,592.349L1054.72,809.411L1029.42,806.44L1029.42,835.408L1002.11,825.043L922.371,880.782L862.83,845.012L805.007,875.906L780.731,845.012L721.222,896.17L776.718,866.659L808.199,899.429L862.83,873.481L923.052,913.194L1002.78,867.982L1029.42,878.089L1029.42,941.245L696.24,941.245L696.24,767.318Z" style="fill:rgb(162,96,40);"/></g><g transform="matrix(0.396403,0.0496176,-0.0511274,0.384697,838.678,577.333)"><path d="M453.411,638.058L412.935,628.375L424.928,641.588L412.935,663.236L412.935,676.277L386.376,674.782L386.797,690.826L372.459,690.826L372.459,592.349L453.411,592.349L453.411,638.058Z" style="fill:rgb(235,235,235);"/></g></g></g></svg>